<?xml version="1.0" encoding="UTF-8"?>
<svg width="100pt" height="100pt" version="1.1" viewBox="0 0 100 100" xmlns="http://www.w3.org/2000/svg">
  <g>
    <path d="m58.957 72.5c-0.625 0.20703-1.457 0.20703-2.082 0.41797 0.625-0.21094 1.457-0.41797 2.082-0.41797z"/>
    <path d="m76.25 56.25c-0.20703 0.83203-0.41797 1.457-0.625 2.082 0.20703-0.625 0.41797-1.457 0.625-2.082z"/>
    <path d="m75.418 58.543c-0.41797 0.83203-0.83203 1.668-1.25 2.5 0.41406-0.625 0.83203-1.4609 1.25-2.5z"/>
    <path d="m76.875 53.543c0 0.625-0.20703 1.25-0.41797 1.875 0.21094-0.625 0.21094-1.25 0.41797-1.875z"/>
    <path d="m77.082 50c0 0.83203 0 1.875-0.20703 2.707 0.20703-0.83203 0.20703-1.875 0.20703-2.707z"/>
    <path d="m56.668 72.707c-0.83594 0.21094-1.668 0.21094-2.5 0.21094 0.83203 0 1.6641 0 2.5-0.21094z"/>
    <path d="m76.457 55.418c0 0.20703-0.20703 0.41797-0.20703 0.625 0-0.21094 0-0.41797 0.20703-0.625z"/>
    <path d="m76.875 52.707c0 0.20703 0 0.41797-0.20703 0.83203 0.20703-0.41406 0.20703-0.62109 0.20703-0.83203z"/>
    <path d="m59.168 72.293c-0.21094 0-0.21094 0.20703 0 0-0.21094 0.20703-0.21094 0 0 0z"/>
    <path d="m75.418 58.332c0 0.20703 0 0.20703-0.20703 0.41797 0.20703-0.20703 0.20703-0.41797 0.20703-0.41797z"/>
    <path d="m56.668 72.707h0.20703-0.20703z"/>
    <path d="m71.668 64.793c-6.668-7.918-16.043-16.668-22.707-22.707-0.41797-0.41797-0.625-0.83203-0.625-1.457 0-1.25 0.83203-2.082 2.082-2.082 0.41797 0 1.043 0.20703 1.457 0.41797h0.20703c9.375 8.543 16.875 15.832 22.293 22.082 0.41797-0.83203 0.83203-1.668 1.25-2.5 0 0 0-0.20703 0.20703-0.41797 0.20703-0.625 0.41797-1.457 0.625-2.082 0-0.20703 0.20703-0.41797 0.20703-0.625 0.20703-0.625 0.20703-1.25 0.41797-1.875 0-0.20703 0-0.41797 0.20703-0.83203-0.20703-0.83984-0.20703-1.8828-0.20703-2.7148 0-16.25-17.082-24.793-33.332-25-14.793-0.20703-22.918-4.168-22.918-4.168s2.082 21.25 6.457 33.125c5.0039 13.543 14.168 18.961 26.879 18.961 0.83203 0 1.668 0 2.5-0.20703h0.20703c0.625 0 1.457-0.20703 2.082-0.41797h0.20703c1.457-0.41797 2.918-0.83203 4.375-1.457 1.25-0.625 2.5-1.25 3.75-2.082 4.168 4.793 6.875 8.543 6.875 10.207h6.25c-0.20703-3.1289-3.7461-8.543-8.7461-14.168z"/>
  </g>
</svg>
